<svg width="46" height="65" viewBox="0 0 46 65" fill="none" xmlns="http://www.w3.org/2000/svg">
<path d="M22.9719 65L4.18634 59.7793L0 12.7742H46.0001L41.8093 59.7722L22.9719 65Z" fill="#4353AD"/>
<path d="M38.2217 56.7794L41.8025 16.6177H23V61.0039L38.2217 56.7794Z" fill="#485FB5"/>
<path d="M23.0001 49.0235L22.9749 49.03L16.5615 47.2964L16.1515 42.6987H10.3706L11.1773 51.7505L22.9736 55.0288L23.0001 55.0215V49.0235ZM8.56006 22.3827L9.08352 28.1476H23.0001V22.3827H8.56006ZM9.59719 34.051L10.1133 39.816H23.0001V34.051H9.59719Z" fill="#EDEDED"/>
<path d="M27.5656 6.38962e-05H34.5405V2.53905H30.4826V3.04709H34.5405V8.88672H27.5656V6.22052H31.6238V5.71288H27.5659V6.38962e-05H27.5656ZM19.1959 6.38962e-05H26.1705V2.53905H22.1127V3.04709H26.1705V8.88672H19.1961V6.22052H23.2541V5.71288H19.1957V6.38962e-05H19.1959ZM10.8262 6.38962e-05H17.8008V2.91988H13.743V5.84009H17.8011V8.75991H10.8262V6.38962e-05Z" fill="#100F0D"/>
<path d="M36.3662 34.0512L37.4057 22.3829H22.9802V28.1477H31.0947L30.5708 34.0512H22.9802V39.8162H30.0715L29.4026 47.2932L22.98 49.0284V55.0261L34.7856 51.7507L34.872 50.7769L36.2257 35.5992L36.3662 34.0512Z" fill="white"/>
</svg>
