<svg width="46" height="65" viewBox="0 0 46 65" fill="none" xmlns="http://www.w3.org/2000/svg">
<path d="M4.16571 59.7793L0 12.774H45.7746L41.6044 59.7719L22.8592 65L4.16571 59.7793Z" fill="#E53D20"/>
<path d="M22.8872 61.0039L38.0342 56.7793L41.5979 16.6174H22.8872V61.0039Z" fill="#F15123"/>
<path d="M22.8875 34.0511H15.3046L14.7808 28.1476H22.8875V22.3825H22.8677H8.51807L8.65528 23.9292L10.0637 39.8159H22.8875V34.0511Z" fill="#EDEDED"/>
<path d="M22.8872 49.0232L22.862 49.03L16.48 47.2962L16.0718 42.6984H12.9707H10.3193L11.1222 51.7503L22.8608 55.0286L22.8872 55.0212V49.0232Z" fill="#EDEDED"/>
<path d="M4.25879 4.1008e-05H7.17102V2.89456H9.8349V4.1008e-05H12.7473V8.76538H9.83502V5.83029H7.17114V8.76538H4.259V4.1008e-05H4.25879Z" fill="#100F0D"/>
<path d="M16.5769 2.90678H14.0132V4.1008e-05H22.0542V2.90678H19.4893V8.76538H16.5771V2.90678H16.5769Z" fill="#100F0D"/>
<path d="M23.3301 4.1008e-05H26.3667L28.2346 3.0799L30.1006 4.1008e-05H33.1384V8.76538H30.2382V4.42079L28.2346 7.53739H28.1846L26.1796 4.42079V8.76538H23.3301V4.1008e-05Z" fill="#100F0D"/>
<path d="M34.5879 4.1008e-05H37.501V5.8681H41.5963V8.76538H34.5879V4.1008e-05Z" fill="#100F0D"/>
<path d="M22.8677 34.0511V39.8159H29.9241L29.259 47.2927L22.8677 49.0282V55.0259L34.6155 51.7504L34.7016 50.7765L36.0483 35.5991L36.1881 34.0511H34.6439H22.8677Z" fill="white"/>
<path d="M22.8677 22.3827V28.1477H36.6912H36.7095L36.8245 26.8518L37.0856 23.9293L37.2226 22.3827H22.8677Z" fill="white"/>
</svg>
