<svg width="72" height="65" viewBox="0 0 72 65" fill="none" xmlns="http://www.w3.org/2000/svg">
<path d="M0.211914 32.4294C0.211914 37.8596 5.48886 42.9288 13.8084 45.7861C12.1471 54.1903 13.5107 60.9639 18.0652 63.6034C22.7468 66.3162 29.7213 64.4383 36.341 58.624C42.7937 64.2036 49.3152 66.3995 53.8656 63.7525C58.5426 61.0319 59.9652 53.7988 58.258 45.1323C66.9232 42.2536 71.7703 37.931 71.7703 32.4294C71.7703 27.1252 66.4836 22.5363 58.2762 19.6972C60.1142 10.6726 58.5568 4.0633 53.8138 1.31488C49.2409 -1.33477 42.6436 0.974672 36.096 6.70042C29.2844 0.622991 22.7522 -1.23252 18.0137 1.52391C13.4453 4.18109 12.1417 11.0779 13.8084 19.6376C5.76978 22.4539 0.211914 27.1464 0.211914 32.4294Z" fill="white"/>
<path d="M56.5382 22.5166C55.8789 22.2885 55.1958 22.0728 54.4924 21.8688C54.608 21.3947 54.7141 20.9267 54.8085 20.4667C56.3571 12.9133 55.3446 6.82827 51.8871 4.82481C48.5718 2.90376 43.1499 4.90677 37.6741 9.69525C37.1475 10.1557 36.6195 10.6432 36.0916 11.1541C35.74 10.8161 35.3888 10.4894 35.0386 10.177C29.2998 5.0568 23.5475 2.8991 20.0934 4.90836C16.7813 6.83498 15.8004 12.5555 17.1944 19.7139C17.329 20.4053 17.4864 21.1114 17.6643 21.8293C16.8502 22.0616 16.0642 22.3091 15.3122 22.5725C8.58403 24.9296 4.28711 28.6237 4.28711 32.4554C4.28711 36.4129 8.89986 40.3823 15.9078 42.7892C16.4608 42.9791 17.0347 43.1587 17.6261 43.3292C17.4341 44.1057 17.2671 44.8665 17.127 45.6086C15.7978 52.6428 16.8358 58.2282 20.1391 60.1427C23.5511 62.1198 29.2774 60.0875 34.8533 55.1899C35.2941 54.8028 35.7363 54.3922 36.1794 53.9619C36.7537 54.5176 37.3271 55.0435 37.8975 55.5368C43.2984 60.207 48.6328 62.0928 51.933 60.173C55.3416 58.1902 56.4494 52.1902 55.0112 44.8902C54.9013 44.3326 54.7735 43.7631 54.63 43.1834C55.0321 43.0639 55.4269 42.9406 55.8118 42.8124C63.0972 40.3869 67.8374 36.4658 67.8374 32.4554C67.8374 28.6098 63.4019 24.8908 56.5382 22.5166Z" fill="#53C1DE"/>
<path d="M54.9576 40.2229C54.6101 40.3385 54.2536 40.4502 53.8903 40.5586C53.086 38.0001 52.0005 35.2795 50.6721 32.4687C51.9398 29.7248 52.9833 27.039 53.765 24.4971C54.4151 24.6861 55.0461 24.8855 55.6541 25.0959C61.5349 27.1302 65.1221 30.1379 65.1221 32.4554C65.1221 34.924 61.2481 38.1285 54.9576 40.2229ZM52.3475 45.4199C52.9835 48.6479 53.0743 51.5663 52.6531 53.8478C52.2746 55.8979 51.5134 57.2647 50.5723 57.8121C48.5695 58.977 44.2866 57.4628 39.6676 53.4689C39.1381 53.011 38.6048 52.5222 38.0697 52.0048C39.8604 50.0369 41.65 47.7491 43.3967 45.2084C46.4689 44.9344 49.3714 44.4866 52.0036 43.8752C52.1332 44.4007 52.2483 44.916 52.3475 45.4199ZM25.9524 57.6108C23.9957 58.3052 22.4373 58.3251 21.4952 57.7793C19.4907 56.6175 18.6573 52.133 19.794 46.1174C19.9242 45.4284 20.0792 44.7208 20.2578 43.9974C22.8611 44.5758 25.7424 44.9921 28.8219 45.2429C30.5804 47.7291 32.4217 50.0144 34.2773 52.0153C33.8719 52.4086 33.4681 52.783 33.0665 53.1358C30.6008 55.3015 28.13 56.838 25.9524 57.6108ZM16.7854 40.2078C13.6867 39.1436 11.1276 37.7604 9.37345 36.251C7.79725 34.8946 7.00146 33.548 7.00146 32.4554C7.00146 30.1301 10.4515 27.1643 16.2055 25.1484C16.9036 24.9038 17.6345 24.6733 18.393 24.4568C19.1882 27.0561 20.2314 29.7737 21.4903 32.5218C20.2151 35.3107 19.1571 38.0716 18.354 40.7013C17.8133 40.5452 17.2895 40.3808 16.7854 40.2078ZM19.8583 19.19C18.664 13.0568 19.4572 8.43022 21.4532 7.26925C23.5792 6.03246 28.2805 7.79586 33.2356 12.2169C33.5523 12.4994 33.8703 12.7952 34.1892 13.1012C32.3427 15.0934 30.5183 17.3615 28.7754 19.833C25.7866 20.1114 22.9256 20.5585 20.2952 21.1573C20.1298 20.4888 19.9833 19.8321 19.8583 19.19ZM47.271 25.9916C46.6422 24.9002 45.9966 23.8346 45.3385 22.7981C47.3661 23.0556 49.3088 23.3975 51.1332 23.8159C50.5855 25.5798 49.9028 27.424 49.0992 29.3146C48.5228 28.2149 47.9131 27.1061 47.271 25.9916ZM36.0922 15.0508C37.3444 16.4139 38.5984 17.9359 39.8319 19.5872C38.5889 19.5283 37.3306 19.4976 36.0619 19.4976C34.8051 19.4976 33.5561 19.5276 32.3208 19.5855C33.5555 17.9496 34.8204 16.4296 36.0922 15.0508ZM24.8417 26.0105C24.2136 27.1049 23.6152 28.2077 23.0478 29.3125C22.2572 27.4285 21.5809 25.5759 21.0284 23.7871C22.8416 23.3793 24.7751 23.046 26.7899 22.7933C26.1225 23.8393 25.4716 24.9128 24.8417 26.0102V26.0105ZM26.8479 42.3121C24.7663 42.0787 22.8037 41.7625 20.991 41.366C21.5522 39.5452 22.2435 37.6531 23.0508 35.7285C23.6197 36.8325 24.2205 37.9357 24.8525 39.0326H24.8526C25.4964 40.1501 26.1633 41.2447 26.8479 42.3121ZM36.1673 50.0523C34.8806 48.6573 33.5971 47.1142 32.3437 45.4543C33.5605 45.5023 34.801 45.5269 36.0619 45.5269C37.3572 45.5269 38.6377 45.4975 39.8981 45.4412C38.6605 47.1309 37.411 48.6764 36.1673 50.0523ZM49.1251 35.6304C49.9745 37.5758 50.6906 39.4581 51.2591 41.2478C49.4165 41.6702 47.4271 42.0104 45.331 42.2632C45.9907 41.2127 46.642 40.1288 47.2819 39.0139C47.9292 37.8858 48.5439 36.7561 49.1251 35.6304ZM44.9302 37.651C43.9368 39.3818 42.917 41.034 41.8816 42.5936C39.9958 42.7291 38.0475 42.7989 36.0619 42.7989C34.0842 42.7989 32.1605 42.7372 30.3081 42.6164C29.231 41.0363 28.1889 39.3792 27.2018 37.6659H27.2021C26.2176 35.9573 25.3115 34.2342 24.4905 32.5209C25.3113 30.8035 26.215 29.0785 27.1938 27.373L27.1936 27.3733C28.175 25.6632 29.2079 24.0142 30.2751 22.444C32.165 22.3004 34.1031 22.2255 36.0617 22.2255H36.0619C38.0293 22.2255 39.9699 22.301 41.8593 22.4458C42.9102 24.0045 43.9361 25.6482 44.9213 27.3585C45.9178 29.0881 46.8331 30.8016 47.6609 32.4821C46.8356 34.1915 45.9223 35.9223 44.9302 37.651ZM50.5306 7.18809C52.6587 8.42124 53.4863 13.3945 52.1493 19.9161C52.064 20.3322 51.9679 20.7561 51.8636 21.1856C49.2271 20.5743 46.364 20.1194 43.3665 19.8369C41.6203 17.3382 39.8107 15.0666 37.9944 13.0999C38.4827 12.6279 38.9704 12.1778 39.456 11.753C44.1477 7.65025 48.5327 6.03041 50.5306 7.18809Z" fill="white"/>
<path d="M36.062 26.7532C39.1961 26.7532 41.7368 29.3061 41.7368 32.4554C41.7368 35.6046 39.1961 38.1576 36.062 38.1576C32.928 38.1576 30.3872 35.6046 30.3872 32.4554C30.3872 29.3061 32.928 26.7532 36.062 26.7532Z" fill="#53C1DE"/>
</svg>
