<?xml version="1.0" encoding="UTF-8" standalone="no"?>
<!-- Created with Inkscape (http://www.inkscape.org/) -->

<svg
   width="5.4152889mm"
   height="5.2743969mm"
   viewBox="0 0 5.4152889 5.2743969"
   version="1.1"
   id="svg150"
   inkscape:version="1.2.2 (732a01da63, 2022-12-09)"
   sodipodi:docname="git.svg"
   xmlns:inkscape="http://www.inkscape.org/namespaces/inkscape"
   xmlns:sodipodi="http://sodipodi.sourceforge.net/DTD/sodipodi-0.dtd"
   xmlns="http://www.w3.org/2000/svg"
   xmlns:svg="http://www.w3.org/2000/svg">
  <sodipodi:namedview
     id="namedview152"
     pagecolor="#ffffff"
     bordercolor="#000000"
     borderopacity="0.25"
     inkscape:showpageshadow="2"
     inkscape:pageopacity="0.0"
     inkscape:pagecheckerboard="0"
     inkscape:deskcolor="#d1d1d1"
     inkscape:document-units="mm"
     showgrid="false"
     inkscape:zoom="0.74564394"
     inkscape:cx="124.05385"
     inkscape:cy="151.54686"
     inkscape:window-width="1920"
     inkscape:window-height="1017"
     inkscape:window-x="-8"
     inkscape:window-y="-8"
     inkscape:window-maximized="1"
     inkscape:current-layer="layer1" />
  <defs
     id="defs147" />
  <g
     inkscape:label="Слой 1"
     inkscape:groupmode="layer"
     id="layer1"
     transform="translate(-72.518145,-65.846673)">
    <path
       d="m 75.225806,65.846673 c -1.495983,0 -2.707661,1.210798 -2.707661,2.704118 0,1.194964 0.775745,2.208341 1.851363,2.565612 0.135383,0.02546 0.185023,-0.05824 0.185023,-0.130027 0,-0.06421 -0.0023,-0.23435 -0.0034,-0.459789 -0.753179,0.163062 -0.912029,-0.362767 -0.912029,-0.362767 -0.123199,-0.312105 -0.301228,-0.39558 -0.301228,-0.39558 -0.245268,-0.167642 0.01895,-0.1642 0.01895,-0.1642 0.271895,0.01882 0.414724,0.278627 0.414724,0.278627 0.241432,0.413457 0.633818,0.293978 0.788607,0.224967 0.02437,-0.174971 0.09409,-0.293978 0.171484,-0.361629 -0.601325,-0.06765 -1.23334,-0.300196 -1.23334,-1.336243 0,-0.295133 0.104922,-0.536375 0.278665,-0.725562 -0.03046,-0.06834 -0.121845,-0.343291 0.02369,-0.715702 0,0 0.226766,-0.07246 0.744606,0.277244 0.216613,-0.06008 0.446764,-0.08989 0.676916,-0.09127 0.230159,0.0014 0.46031,0.03119 0.676923,0.09127 0.514456,-0.349709 0.741222,-0.277244 0.741222,-0.277244 0.145537,0.372411 0.05415,0.647365 0.02708,0.715702 0.172613,0.189187 0.277535,0.430429 0.277535,0.725562 0,1.038823 -0.632916,1.267426 -1.23537,1.333939 0.09477,0.08117 0.182767,0.24698 0.182767,0.500373 0,0.361879 -0.0034,0.652637 -0.0034,0.740469 0,0.07087 0.04738,0.155484 0.186152,0.128418 1.083281,-0.354994 1.858349,-1.369038 1.858349,-2.56217 -1e-6,-1.49332 -1.212356,-2.704118 -2.707662,-2.704118 z"
       fill="#212121"
       id="path18"
       style="stroke-width:0.274161" />
  </g>
</svg>
